<svg width="580" height="580" viewBox="0 0 580 580" fill="none" xmlns="http://www.w3.org/2000/svg">
<rect width="580" height="580" rx="60" fill="white"/>
<g filter="url(#filter0_d_4110_2)">
<path d="M322.039 311.523C324.395 311.937 327.544 311.771 331.227 311.129C338.586 309.846 347.998 306.68 357.281 302.591C366.564 298.502 375.702 293.498 382.515 288.551C385.922 286.077 388.738 283.621 390.701 281.309C392.67 278.989 393.75 276.847 393.75 274.992C393.75 271.626 392.879 268.984 391.346 267.069C389.813 265.156 387.599 263.946 384.869 263.475C379.398 262.53 371.874 264.559 363.778 269.824H363.777C358.047 273.586 346.182 278.829 334.726 283.126C328.993 285.276 323.356 287.193 318.629 288.572C313.914 289.949 310.074 290.801 307.954 290.801C307.184 290.801 306.711 290.9 306.466 291.07C306.354 291.148 306.293 291.239 306.267 291.349C306.238 291.466 306.243 291.628 306.309 291.849C306.441 292.296 306.792 292.909 307.394 293.725C307.991 294.535 308.82 295.525 309.882 296.724L309.881 296.725C311.534 298.464 313.233 300.633 314.64 302.753C316.046 304.872 317.173 306.959 317.667 308.529C318.182 310.129 319.681 311.109 322.039 311.523Z" fill="#FF2056" stroke="#0022FF" stroke-width="0.5"/>
<path d="M244.388 110.695C321.301 84.3547 409.887 130.405 435.516 209.493L436.109 211.367C436.961 214.137 437.751 219.593 438.466 227.076C439.18 234.551 439.816 244.028 440.366 254.826C441.466 276.422 442.219 303.296 442.554 329.997C442.888 356.698 442.804 383.226 442.23 404.128C441.944 414.579 441.535 423.622 440.994 430.576C440.724 434.053 440.421 437.006 440.085 439.35C439.748 441.699 439.38 443.42 438.984 444.443H438.983V444.445C432.614 461.372 416.395 472.234 398.741 475.476C381.088 478.717 362.056 474.326 350.077 460.822C343.874 453.707 338.71 443.369 334.932 434.26C331.155 425.155 328.772 417.301 328.125 415.169C328.03 414.855 327.968 414.649 327.946 414.593C327.944 414.588 327.941 414.581 327.938 414.573C327.936 414.569 327.933 414.562 327.929 414.555C327.926 414.549 327.917 414.532 327.901 414.514C327.895 414.505 327.879 414.49 327.856 414.473C323.977 403.825 319.796 394.744 315.025 384.389C310.258 374.041 304.903 362.416 298.67 346.668C296.665 341.416 295.127 337.461 293.729 335.036C293.031 333.827 292.348 332.961 291.63 332.516C291.265 332.29 290.886 332.169 290.491 332.171C290.098 332.173 289.708 332.297 289.319 332.53C288.551 332.991 287.76 333.896 286.9 335.227C286.037 336.563 285.087 338.356 284.01 340.626C281.854 345.166 279.173 351.642 275.636 360.25V360.251L263.585 389.717L263.582 389.724L263.58 389.731C262.937 391.635 262.284 393.591 261.617 395.587C255.735 413.204 248.819 433.915 238.362 449.176H238.361C225.116 468.526 204.732 477.572 185.739 476.691C167.047 475.824 149.701 465.343 141.811 445.584L141.442 444.637C141.155 443.854 140.881 442.354 140.625 440.196C140.37 438.046 140.135 435.265 139.922 431.942C139.495 425.298 139.152 416.493 138.891 406.232C138.368 385.712 138.171 359.376 138.278 332.865C138.386 306.355 138.799 279.671 139.495 258.457C139.843 247.85 140.262 238.612 140.749 231.446C141.206 224.719 141.723 219.841 142.292 217.369L142.406 216.907C155.668 167.822 192.804 128.886 243.195 111.111L244.388 110.695ZM404.816 203.903C357.669 104.999 222.944 104.806 175.989 203.334V203.335C175.989 203.336 175.988 203.337 175.987 203.338C175.986 203.341 175.984 203.345 175.981 203.351C175.976 203.362 175.967 203.379 175.956 203.4C175.934 203.444 175.9 203.51 175.857 203.597C175.771 203.769 175.645 204.025 175.485 204.358C175.165 205.026 174.708 206.007 174.16 207.263C173.064 209.773 171.602 213.381 170.141 217.771C167.219 226.548 164.294 238.464 164.294 251V330.112L163.529 434.199L163.528 434.232L163.537 434.266L163.538 434.267L163.543 434.286C163.547 434.299 163.552 434.318 163.559 434.342C163.573 434.39 163.594 434.46 163.624 434.549C163.683 434.727 163.775 434.981 163.906 435.293C164.169 435.917 164.591 436.772 165.229 437.698C166.506 439.552 168.652 441.697 172.116 442.857C172.277 442.911 172.449 442.969 172.63 443.03C176.351 444.284 184.135 446.908 192.656 446.729C201.189 446.55 210.476 443.559 217.161 433.575C226.404 419.776 229.377 410.035 231.621 402.68C232.495 399.815 233.255 397.327 234.229 395.101L234.25 395.053V395.016C234.251 395.011 234.252 395.004 234.255 394.994C234.262 394.967 234.273 394.928 234.29 394.875C234.323 394.77 234.375 394.619 234.444 394.424C234.583 394.034 234.794 393.468 235.079 392.724C235.65 391.235 236.519 389.033 237.711 386.09C240.095 380.202 243.772 371.348 248.936 359.295L248.937 359.294C254.005 347.24 258.643 336.189 262.015 328.104C263.7 324.063 265.07 320.762 266.018 318.447C266.491 317.29 266.86 316.378 267.11 315.743C267.235 315.426 267.332 315.177 267.397 315C267.43 314.912 267.455 314.84 267.473 314.785C267.481 314.758 267.489 314.733 267.495 314.711C267.498 314.698 267.51 314.658 267.51 314.615C267.51 314.522 267.462 314.461 267.439 314.437C267.415 314.409 267.389 314.392 267.373 314.382C267.341 314.362 267.304 314.346 267.274 314.335C267.212 314.311 267.128 314.285 267.029 314.259C266.829 314.205 266.538 314.14 266.171 314.065C265.434 313.915 264.373 313.723 263.068 313.508C260.459 313.077 256.869 312.55 252.944 312.071H252.945C248.863 311.549 243.134 309.847 236.758 307.457C230.386 305.069 223.382 301.999 216.753 298.749C210.124 295.499 203.874 292.071 199.01 288.969C196.577 287.417 194.495 285.949 192.886 284.627C191.372 283.383 190.295 282.284 189.733 281.379L189.628 281.2C187.4 277.025 186.827 273.491 187.492 270.735C188.155 267.988 190.058 265.97 192.875 264.836C198.532 262.559 207.865 263.856 217.971 270.055C234.643 280.406 253.994 287.304 275.826 290.944H275.827C286.427 292.664 293.45 294.998 299.399 300.049C304.986 304.791 309.647 311.945 315.408 323.304L316.576 325.633C321.35 336.564 325.186 345.329 328.383 352.632C340.382 380.048 343.366 386.865 353.104 410.38L353.105 410.384C357.363 420.146 361.194 427.978 364.881 434.094C368.567 440.208 372.118 444.62 375.822 447.528C379.532 450.441 383.391 451.843 387.678 451.943C391.956 452.043 396.643 450.845 402.015 448.591L402.024 448.587L402.034 448.581C405.309 446.864 407.927 445.312 409.962 442.21C411.991 439.116 413.423 434.507 414.412 426.709C416.266 412.089 416.575 386.136 416.213 337.63L416.132 327.624V251C416.132 237.466 413.303 225.694 410.476 217.307C409.062 213.112 407.648 209.763 406.587 207.461C406.056 206.31 405.614 205.421 405.304 204.819C405.149 204.518 405.026 204.289 404.942 204.135C404.901 204.058 404.869 203.999 404.848 203.96C404.837 203.94 404.828 203.925 404.822 203.915L404.816 203.903Z" fill="#FF2056" stroke="#0022FF" stroke-width="0.5"/>
<path d="M290.365 275.75C314.575 275.75 330 248.074 317.051 228.247V228.246C308.47 215.075 291.5 209.732 277.205 215.647L277.203 215.648L276.501 215.94C261.916 222.215 257.152 236.964 260.063 250.271C263.022 263.789 273.89 275.75 290.365 275.75Z" fill="#FF2056" stroke="#0022FF" stroke-width="0.5"/>
</g>
<defs>
<filter id="filter0_d_4110_2" x="134" y="103" width="313" height="382" filterUnits="userSpaceOnUse" color-interpolation-filters="sRGB">
<feFlood flood-opacity="0" result="BackgroundImageFix"/>
<feColorMatrix in="SourceAlpha" type="matrix" values="0 0 0 0 0 0 0 0 0 0 0 0 0 0 0 0 0 0 127 0" result="hardAlpha"/>
<feOffset dy="4"/>
<feGaussianBlur stdDeviation="2"/>
<feComposite in2="hardAlpha" operator="out"/>
<feColorMatrix type="matrix" values="0 0 0 0 0 0 0 0 0 0 0 0 0 0 0 0 0 0 0.25 0"/>
<feBlend mode="normal" in2="BackgroundImageFix" result="effect1_dropShadow_4110_2"/>
<feBlend mode="normal" in="SourceGraphic" in2="effect1_dropShadow_4110_2" result="shape"/>
</filter>
</defs>
</svg>
